<svg width="392" height="349" viewBox="0 0 392 349" fill="none" xmlns="http://www.w3.org/2000/svg"><path d="M387.637 158.141 305.963 16.359C300.083 6.217 289.302 0 277.65 0H114.302a32.577 32.577 0 0 0-28.259 16.36L4.37 158.14a32.808 32.808 0 0 0 0 32.718l81.673 141.782A32.578 32.578 0 0 0 114.302 349H277.65a32.579 32.579 0 0 0 28.259-16.359l81.674-141.782a32.677 32.677 0 0 0 .054-32.718Z" fill="url(#a)"/><path fill-rule="evenodd" clip-rule="evenodd" d="M196 115c-26.4 0-42.9 13.222-49.5 39.667 9.9-13.223 21.45-18.181 34.65-14.875 7.531 1.884 12.914 7.36 18.872 13.417 9.706 9.868 20.941 21.291 45.478 21.291 26.4 0 42.9-13.222 49.5-39.667-9.9 13.223-21.45 18.181-34.65 14.875-7.531-1.884-12.914-7.36-18.872-13.417C231.772 126.423 220.537 115 196 115Zm-49.5 59.5c-26.4 0-42.9 13.222-49.5 39.667 9.9-13.223 21.45-18.181 34.65-14.875 7.531 1.888 12.914 7.36 18.872 13.417C160.228 222.577 171.463 234 196 234c26.4 0 42.9-13.222 49.5-39.667-9.9 13.223-21.45 18.181-34.65 14.875-7.531-1.884-12.914-7.36-18.872-13.417-9.706-9.868-20.941-21.291-45.478-21.291Z" fill="url(#b)"/><defs><radialGradient id="a" cx="0" cy="0" r="1" gradientUnits="userSpaceOnUse" gradientTransform="matrix(392.135 0 0 392.726 294.892 344.455)"><stop stop-color="#EC991C"/><stop offset="1" stop-color="#E9B213"/></radialGradient><radialGradient id="b" cx="0" cy="0" r="1" gradientUnits="userSpaceOnUse" gradientTransform="rotate(149.247 116.884 103.936) scale(159.894 141.792)"><stop offset=".188" stop-color="#fff"/><stop offset=".613" stop-color="#fff" stop-opacity=".857"/><stop offset="1" stop-color="#fff" stop-opacity=".6"/></radialGradient></defs></svg>